<svg width="53" height="14" viewBox="0 0 53 14" fill="none" xmlns="http://www.w3.org/2000/svg">
<path d="M10.664 0.436V13H8.144V7.654H2.762V13H0.242V0.436H2.762V5.602H8.144V0.436H10.664ZM17.5723 13.162C16.6123 13.162 15.7483 12.952 14.9803 12.532C14.2123 12.1 13.6063 11.494 13.1623 10.714C12.7303 9.934 12.5143 9.034 12.5143 8.014C12.5143 6.994 12.7363 6.094 13.1803 5.314C13.6363 4.534 14.2543 3.934 15.0343 3.514C15.8143 3.082 16.6843 2.866 17.6443 2.866C18.6043 2.866 19.4743 3.082 20.2543 3.514C21.0343 3.934 21.6463 4.534 22.0903 5.314C22.5463 6.094 22.7743 6.994 22.7743 8.014C22.7743 9.034 22.5403 9.934 22.0723 10.714C21.6163 11.494 20.9923 12.1 20.2003 12.532C19.4203 12.952 18.5443 13.162 17.5723 13.162ZM17.5723 10.966C18.0283 10.966 18.4543 10.858 18.8503 10.642C19.2583 10.414 19.5823 10.078 19.8223 9.634C20.0623 9.19 20.1823 8.65 20.1823 8.014C20.1823 7.066 19.9303 6.34 19.4263 5.836C18.9343 5.32 18.3283 5.062 17.6083 5.062C16.8883 5.062 16.2823 5.32 15.7903 5.836C15.3103 6.34 15.0703 7.066 15.0703 8.014C15.0703 8.962 15.3043 9.694 15.7723 10.21C16.2523 10.714 16.8523 10.966 17.5723 10.966ZM37.0069 2.884C38.2309 2.884 39.2149 3.262 39.9589 4.018C40.7149 4.762 41.0929 5.806 41.0929 7.15V13H38.5729V7.492C38.5729 6.712 38.3749 6.118 37.9789 5.71C37.5829 5.29 37.0429 5.08 36.3589 5.08C35.6749 5.08 35.1289 5.29 34.7209 5.71C34.3249 6.118 34.1269 6.712 34.1269 7.492V13H31.6069V7.492C31.6069 6.712 31.4089 6.118 31.0129 5.71C30.6169 5.29 30.0769 5.08 29.3929 5.08C28.6969 5.08 28.1449 5.29 27.7369 5.71C27.3409 6.118 27.1429 6.712 27.1429 7.492V13H24.6229V3.028H27.1429V4.234C27.4669 3.814 27.8809 3.484 28.3849 3.244C28.9009 3.004 29.4649 2.884 30.0769 2.884C30.8569 2.884 31.5529 3.052 32.1649 3.388C32.7769 3.712 33.2509 4.18 33.5869 4.792C33.9109 4.216 34.3789 3.754 34.9909 3.406C35.6149 3.058 36.2869 2.884 37.0069 2.884ZM52.7542 7.798C52.7542 8.158 52.7302 8.482 52.6822 8.77H45.3922C45.4522 9.49 45.7042 10.054 46.1482 10.462C46.5922 10.87 47.1382 11.074 47.7862 11.074C48.7222 11.074 49.3882 10.672 49.7842 9.868H52.5022C52.2142 10.828 51.6622 11.62 50.8462 12.244C50.0302 12.856 49.0282 13.162 47.8402 13.162C46.8802 13.162 46.0162 12.952 45.2482 12.532C44.4922 12.1 43.8982 11.494 43.4662 10.714C43.0462 9.934 42.8362 9.034 42.8362 8.014C42.8362 6.982 43.0462 6.076 43.4662 5.296C43.8862 4.516 44.4742 3.916 45.2302 3.496C45.9862 3.076 46.8562 2.866 47.8402 2.866C48.7882 2.866 49.6342 3.07 50.3782 3.478C51.1342 3.886 51.7162 4.468 52.1242 5.224C52.5442 5.968 52.7542 6.826 52.7542 7.798ZM50.1442 7.078C50.1322 6.43 49.8982 5.914 49.4422 5.53C48.9862 5.134 48.4282 4.936 47.7682 4.936C47.1442 4.936 46.6162 5.128 46.1842 5.512C45.7642 5.884 45.5062 6.406 45.4102 7.078H50.1442Z" fill="white"/>
</svg>
